<?xml version="1.0" encoding="UTF-8"?>
<!DOCTYPE svg PUBLIC "-//W3C//DTD SVG 1.1//EN" "http://www.w3.org/Graphics/SVG/1.1/DTD/svg11.dtd">
<svg version="1.1" xmlns="http://www.w3.org/2000/svg" xmlns:xlink="http://www.w3.org/1999/xlink" x="0px" y="0px" width="18px" height="18px" viewBox="0 0 18 18" enable-background="new 0 0 18 18" xml:space="preserve">
<path fill="#f34d4d" d="M10.591,9l7.079-7.08c0.439-0.439,0.439-1.151,0-1.591s-1.151-0.439-1.591,0L9,7.409L1.92,0.33  C1.481-0.11,0.769-0.11,0.33,0.33s-0.439,1.151,0,1.591L7.41,9l-7.08,7.08c-0.439,0.439-0.439,1.151,0,1.591  C0.549,17.89,0.837,18,1.125,18c0.289,0,0.576-0.11,0.796-0.33L9,10.591l7.08,7.08c0.22,0.22,0.508,0.33,0.795,0.33  c0.288,0,0.576-0.11,0.796-0.33c0.439-0.439,0.439-1.151,0-1.591L10.591,9z"/>
</svg>